<mxfile host="app.diagrams.net" agent="Mozilla/5.0 (Windows NT 10.0; Win64; x64) AppleWebKit/537.36 (KHTML, like Gecko) Chrome/131.0.0.0 Safari/537.36" version="25.0.0">
  <diagram name="PÃ¡gina-1" id="skSc1Dzn7DAufpsABrrS">
    <mxGraphModel dx="1244" dy="867" grid="1" gridSize="10" guides="1" tooltips="1" connect="1" arrows="1" fold="1" page="0" pageScale="1" pageWidth="827" pageHeight="1169" math="0" shadow="0">
      <root>
        <mxCell id="0" />
        <mxCell id="1" parent="0" />
        <mxCell id="78WVr-vmJHPnTCsPzG9v-15" value="" style="group" vertex="1" connectable="0" parent="1">
          <mxGeometry x="20" y="120" width="660" height="450" as="geometry" />
        </mxCell>
        <mxCell id="78WVr-vmJHPnTCsPzG9v-8" value="" style="shape=folder;fontStyle=1;spacingTop=10;tabWidth=40;tabHeight=14;tabPosition=left;html=1;whiteSpace=wrap;fillColor=#d5e8d4;strokeColor=#82b366;" vertex="1" parent="78WVr-vmJHPnTCsPzG9v-15">
          <mxGeometry width="660" height="450" as="geometry" />
        </mxCell>
        <mxCell id="78WVr-vmJHPnTCsPzG9v-3" value="pages" style="shape=folder;fontStyle=1;spacingTop=10;tabWidth=40;tabHeight=14;tabPosition=left;html=1;whiteSpace=wrap;fillColor=#f5f5f5;strokeColor=#666666;fontColor=#333333;" vertex="1" parent="78WVr-vmJHPnTCsPzG9v-15">
          <mxGeometry x="229" y="200" width="150" height="80" as="geometry" />
        </mxCell>
        <mxCell id="78WVr-vmJHPnTCsPzG9v-11" value="" style="edgeStyle=orthogonalEdgeStyle;rounded=0;orthogonalLoop=1;jettySize=auto;html=1;entryX=0.5;entryY=0.188;entryDx=0;entryDy=0;entryPerimeter=0;dashed=1;" edge="1" parent="78WVr-vmJHPnTCsPzG9v-15" source="78WVr-vmJHPnTCsPzG9v-4" target="78WVr-vmJHPnTCsPzG9v-3">
          <mxGeometry relative="1" as="geometry" />
        </mxCell>
        <mxCell id="78WVr-vmJHPnTCsPzG9v-4" value="js" style="shape=folder;fontStyle=1;spacingTop=10;tabWidth=40;tabHeight=14;tabPosition=left;html=1;whiteSpace=wrap;fillColor=#fff2cc;strokeColor=#d6b656;" vertex="1" parent="78WVr-vmJHPnTCsPzG9v-15">
          <mxGeometry x="234" y="70" width="140" height="80" as="geometry" />
        </mxCell>
        <mxCell id="78WVr-vmJHPnTCsPzG9v-10" value="" style="edgeStyle=orthogonalEdgeStyle;rounded=0;orthogonalLoop=1;jettySize=auto;html=1;dashed=1;" edge="1" parent="78WVr-vmJHPnTCsPzG9v-15" source="78WVr-vmJHPnTCsPzG9v-5" target="78WVr-vmJHPnTCsPzG9v-3">
          <mxGeometry relative="1" as="geometry" />
        </mxCell>
        <mxCell id="78WVr-vmJHPnTCsPzG9v-5" value="styles" style="shape=folder;fontStyle=1;spacingTop=10;tabWidth=40;tabHeight=14;tabPosition=left;html=1;whiteSpace=wrap;fillColor=#dae8fc;strokeColor=#6c8ebf;" vertex="1" parent="78WVr-vmJHPnTCsPzG9v-15">
          <mxGeometry x="30" y="205" width="150" height="70" as="geometry" />
        </mxCell>
        <mxCell id="78WVr-vmJHPnTCsPzG9v-12" value="" style="edgeStyle=orthogonalEdgeStyle;rounded=0;orthogonalLoop=1;jettySize=auto;html=1;exitX=0.5;exitY=0.229;exitDx=0;exitDy=0;exitPerimeter=0;dashed=1;" edge="1" parent="78WVr-vmJHPnTCsPzG9v-15" source="78WVr-vmJHPnTCsPzG9v-6" target="78WVr-vmJHPnTCsPzG9v-3">
          <mxGeometry relative="1" as="geometry" />
        </mxCell>
        <mxCell id="78WVr-vmJHPnTCsPzG9v-6" value="firebase" style="shape=folder;fontStyle=1;spacingTop=10;tabWidth=40;tabHeight=14;tabPosition=left;html=1;whiteSpace=wrap;fillColor=#f8cecc;strokeColor=#b85450;" vertex="1" parent="78WVr-vmJHPnTCsPzG9v-15">
          <mxGeometry x="234" y="350" width="140" height="70" as="geometry" />
        </mxCell>
        <mxCell id="78WVr-vmJHPnTCsPzG9v-9" value="" style="edgeStyle=orthogonalEdgeStyle;rounded=0;orthogonalLoop=1;jettySize=auto;html=1;dashed=1;" edge="1" parent="78WVr-vmJHPnTCsPzG9v-15" source="78WVr-vmJHPnTCsPzG9v-7" target="78WVr-vmJHPnTCsPzG9v-3">
          <mxGeometry relative="1" as="geometry" />
        </mxCell>
        <mxCell id="78WVr-vmJHPnTCsPzG9v-7" value="assets" style="shape=folder;fontStyle=1;spacingTop=10;tabWidth=40;tabHeight=14;tabPosition=left;html=1;whiteSpace=wrap;fillColor=#ffe6cc;strokeColor=#d79b00;" vertex="1" parent="78WVr-vmJHPnTCsPzG9v-15">
          <mxGeometry x="449" y="200" width="130" height="80" as="geometry" />
        </mxCell>
        <mxCell id="78WVr-vmJHPnTCsPzG9v-13" style="edgeStyle=orthogonalEdgeStyle;rounded=0;orthogonalLoop=1;jettySize=auto;html=1;entryX=0;entryY=0;entryDx=140;entryDy=47;entryPerimeter=0;dashed=1;" edge="1" parent="78WVr-vmJHPnTCsPzG9v-15" source="78WVr-vmJHPnTCsPzG9v-6" target="78WVr-vmJHPnTCsPzG9v-4">
          <mxGeometry relative="1" as="geometry">
            <Array as="points">
              <mxPoint x="629" y="390" />
              <mxPoint x="629" y="117" />
            </Array>
          </mxGeometry>
        </mxCell>
        <mxCell id="78WVr-vmJHPnTCsPzG9v-14" value="Web" style="text;html=1;align=center;verticalAlign=middle;resizable=0;points=[];autosize=1;strokeColor=none;fillColor=none;fontStyle=1" vertex="1" parent="78WVr-vmJHPnTCsPzG9v-15">
          <mxGeometry x="305" y="20" width="50" height="30" as="geometry" />
        </mxCell>
      </root>
    </mxGraphModel>
  </diagram>
</mxfile>
